<?xml version="1.0" encoding="UTF-8"?>
<svg id="Layer_2" data-name="Layer 2" xmlns="http://www.w3.org/2000/svg" viewBox="0 0 199.9 196.07">
  <defs>
    <style>
      .cls-1 {
        fill: #f1a1ae;
      }

      .cls-1, .cls-2, .cls-3, .cls-4, .cls-5, .cls-6 {
        stroke-width: 0px;
      }

      .cls-7 {
        fill: #e6e6e6;
        stroke: #000;
        stroke-miterlimit: 10;
      }

      .cls-3 {
        fill: #04a913;
      }

      .cls-4 {
        fill: #aaaa39;
      }

      .cls-5 {
        fill: #582a72;
      }

      .cls-6 {
        fill: #a43741;
      }
    </style>
  </defs>
  <g id="Layer_1-2" data-name="Layer 1">
    <circle class="cls-2" cx="99.9" cy="99.52" r="12.5"/>
    <g>
      <g id="DyvkR5.tif">
        <path class="cls-1" d="M112.07,0c4.81,1.02,9.68,1.82,14.42,3.1,6.77,1.83,13.11,4.62,17.64,10.33,4.43,5.58,4.72,9.87,1.04,15.82-1.82,2.95-3.77,5.82-5.69,8.71-.64.96-1.37,1.85-2.32,3.13-9.61-12.46-23.48-13.05-37.15-13.03-13.75.02-27.57.94-37.96,13.37-3.21-5.37-6.51-10.26-9.13-15.5-2.24-4.48.28-10.8,5.53-15.25,7.36-6.24,16.36-8.26,25.57-9.69,1.43-.22,2.82-.66,4.24-.99,7.94,0,15.88,0,23.82,0Z"/>
      </g>
      <g id="DyvkR5.tif-2" data-name="DyvkR5.tif">
        <path class="cls-4" d="M198.31,80.34c.52,4.89,1.26,9.77,1.51,14.67.35,7.01-.35,13.89-4.37,19.97-3.94,5.94-7.93,7.54-14.73,5.88-3.37-.82-6.7-1.79-10.04-2.72-1.11-.31-2.18-.73-3.7-1.24,8.88-12.99,5.15-26.36.91-39.36-4.26-13.07-9.42-25.93-24.45-31.97,4.12-4.71,7.75-9.37,11.92-13.47,3.57-3.52,10.35-3.07,16.21.55,8.21,5.07,12.91,13,17.11,21.33.65,1.29,1.5,2.48,2.25,3.72,2.45,7.55,4.91,15.1,7.36,22.66Z"/>
      </g>
      <g id="DyvkR5.tif-3" data-name="DyvkR5.tif">
        <path class="cls-6" d="M148.55,187.19c-4.49,2.01-8.9,4.22-13.48,5.97-6.56,2.5-13.32,3.96-20.34,2.01-6.87-1.91-9.62-5.21-10.14-12.19-.26-3.46-.37-6.92-.51-10.39-.05-1.15.02-2.3.04-3.9,15.1,4.43,26.66-3.24,37.72-11.3,11.11-8.09,21.75-16.97,22.85-33.13,5.75,2.46,11.3,4.48,16.5,7.17,4.45,2.31,6.12,8.9,4.49,15.59-2.28,9.38-8.38,16.3-14.99,22.87-1.03,1.02-1.9,2.19-2.84,3.29-6.42,4.67-12.85,9.34-19.27,14Z"/>
      </g>
      <g id="DyvkR5.tif-4" data-name="DyvkR5.tif">
        <path class="cls-5" d="M31.56,172.88c-3.29-3.65-6.76-7.16-9.84-10.98-4.4-5.46-7.89-11.44-8.2-18.73-.31-7.12,1.98-10.76,8.46-13.41,3.21-1.31,6.47-2.49,9.72-3.7,1.08-.4,2.19-.69,3.72-1.17.46,15.73,11.32,24.35,22.4,32.38,11.13,8.07,22.86,15.44,38.57,11.49-.56,6.23-.76,12.13-1.72,17.91-.82,4.94-6.57,8.57-13.44,9.09-9.62.73-18.09-2.93-26.38-7.19-1.29-.66-2.67-1.13-4.01-1.69-6.42-4.67-12.85-9.34-19.27-14Z"/>
      </g>
      <g id="DyvkR5.tif-5" data-name="DyvkR5.tif">
        <path class="cls-3" d="M9.01,57.19c2.45-4.26,4.72-8.64,7.4-12.75,3.83-5.88,8.45-11.04,15.28-13.59,6.68-2.49,10.84-1.44,15.37,3.9,2.24,2.64,4.37,5.38,6.52,8.1.71.9,1.34,1.87,2.26,3.18-14.82,5.29-19.66,18.29-23.87,31.31-4.23,13.08-7.62,26.51.99,40.24-6.1,1.39-11.77,3.02-17.56,3.89-4.96.75-10.18-3.6-12.8-9.97-3.67-8.93-2.8-18.11-1.31-27.31.23-1.43.25-2.89.37-4.34,2.45-7.55,4.91-15.1,7.36-22.66Z"/>
      </g>
    </g>
    <g>
      <g id="_Radial_Repeat_" data-name="&amp;lt;Radial Repeat&amp;gt;">
        <path class="cls-7" d="M99.56,163.21c12.5-8.09,20.82-22.11,20.91-38.11.02-4.26-.55-8.39-1.62-12.31-12.86,7.73-27.94,12.14-44.06,12.05l-.36.29c4.92,15.33,13.79,28.28,25.13,38.08Z"/>
      </g>
      <g id="_Radial_Repeat_-2" data-name="&amp;lt;Radial Repeat&amp;gt;">
        <path class="cls-7" d="M62.19,150.85c14.87.81,29.84-5.65,39.32-18.54,2.53-3.44,4.49-7.11,5.93-10.91-14.95-1.3-29.74-6.6-42.72-16.15l-.46.02c-5.03,15.29-5.46,30.98-2.06,45.58Z"/>
      </g>
      <g id="_Radial_Repeat_-3" data-name="&amp;lt;Radial Repeat&amp;gt;">
        <path class="cls-7" d="M39.22,118.88c11.55,9.39,27.46,12.97,42.71,8.11,4.06-1.29,7.81-3.12,11.21-5.35-11.33-9.84-20.18-22.82-25.07-38.18l-.39-.26c-13.06,9.42-22.63,21.86-28.45,35.67Z"/>
      </g>
      <g id="_Radial_Repeat_-4" data-name="&amp;lt;Radial Repeat&amp;gt;">
        <path class="cls-7" d="M39.43,79.52c3.83,14.39,14.59,26.63,29.78,31.66,4.05,1.34,8.15,2.07,12.21,2.26-3.38-14.62-2.92-30.32,2.15-45.62l-.16-.43c-16.1-.05-31.16,4.38-43.98,12.13Z"/>
      </g>
      <g id="_Radial_Repeat_-5" data-name="&amp;lt;Radial Repeat&amp;gt;">
        <path class="cls-7" d="M62.73,47.8c-5.36,13.89-3.85,30.12,5.48,43.12,2.49,3.46,5.38,6.47,8.55,9.01,5.86-13.81,15.46-26.25,28.56-35.64l.12-.45c-12.99-9.51-27.78-14.77-42.71-16.04Z"/>
      </g>
      <g id="_Radial_Repeat_-6" data-name="&amp;lt;Radial Repeat&amp;gt;">
        <path class="cls-7" d="M100.24,35.83c-12.5,8.09-20.82,22.11-20.91,38.11-.02,4.26.55,8.39,1.62,12.31,12.86-7.73,27.94-12.14,44.06-12.05l.36-.29c-4.92-15.33-13.79-28.28-25.13-38.08Z"/>
      </g>
      <g id="_Radial_Repeat_-7" data-name="&amp;lt;Radial Repeat&amp;gt;">
        <path class="cls-7" d="M137.61,48.19c-14.87-.81-29.84,5.65-39.32,18.54-2.53,3.44-4.49,7.11-5.93,10.91,14.95,1.3,29.74,6.6,42.72,16.15l.46-.02c5.03-15.29,5.46-30.98,2.06-45.58Z"/>
      </g>
      <g id="_Radial_Repeat_-8" data-name="&amp;lt;Radial Repeat&amp;gt;">
        <path class="cls-7" d="M160.58,80.16c-11.55-9.39-27.46-12.97-42.71-8.11-4.06,1.29-7.81,3.12-11.21,5.35,11.33,9.84,20.18,22.82,25.07,38.18l.39.26c13.06-9.42,22.63-21.86,28.45-35.67Z"/>
      </g>
      <g id="_Radial_Repeat_-9" data-name="&amp;lt;Radial Repeat&amp;gt;">
        <path class="cls-7" d="M160.37,119.52c-3.83-14.39-14.59-26.63-29.78-31.66-4.05-1.34-8.15-2.07-12.21-2.26,3.38,14.62,2.92,30.32-2.15,45.62l.16.43c16.1.05,31.16-4.38,43.98-12.13Z"/>
      </g>
      <g id="_Radial_Repeat_-10" data-name="&amp;lt;Radial Repeat&amp;gt;">
        <path class="cls-7" d="M137.07,151.25c5.36-13.89,3.85-30.12-5.48-43.12-2.49-3.46-5.38-6.47-8.55-9.01-5.86,13.81-15.46,26.25-28.56,35.64l-.12.45c12.99,9.51,27.78,14.77,42.71,16.04Z"/>
      </g>
    </g>
  </g>
</svg>